ply
format ascii 1.0
comment Created by Blender 2.79 (sub 7) - www.blender.org, source file: 'tahkmahnellePattonWilsonU.blend'
element vertex 240
property float x
property float y
property float z
property float nx
property float ny
property float nz
element face 80
property list uchar uint vertex_indices
end_header
-297.841309 -1316.404907 -1102.023438 0.307824 -0.380714 -0.871952
-266.244629 -1328.721191 -1085.491333 0.307824 -0.380714 -0.871952
-302.334259 -1351.290039 -1088.377930 0.307824 -0.380714 -0.871952
-247.099075 -1335.133057 -1053.620850 0.831713 -0.159657 -0.531755
-266.244629 -1328.721191 -1085.491333 0.831713 -0.159657 -0.531755
-246.077164 -1298.602051 -1062.990723 0.831713 -0.159657 -0.531755
-297.841309 -1316.404907 -1102.023438 -0.076131 -0.354703 -0.931875
-302.334259 -1351.290039 -1088.377930 -0.076131 -0.354703 -0.931875
-334.297485 -1324.110840 -1096.111938 -0.076131 -0.354703 -0.931875
-297.841309 -1316.404907 -1102.023438 -0.164301 0.020750 -0.986192
-334.297485 -1324.110840 -1096.111938 -0.164301 0.020750 -0.986192
-317.961334 -1284.744385 -1098.005249 -0.164301 0.020750 -0.986192
-297.841309 -1316.404907 -1102.023438 0.165167 0.226780 -0.959839
-317.961334 -1284.744385 -1098.005249 0.165167 0.226780 -0.959839
-275.902618 -1287.594116 -1091.441162 0.165167 0.226780 -0.959839
-247.099075 -1335.133057 -1053.620850 0.980479 -0.074137 -0.182110
-246.077164 -1298.602051 -1062.990723 0.980479 -0.074137 -0.182110
-239.877441 -1313.563965 -1023.520508 0.980479 -0.074137 -0.182110
-308.498871 -1373.529663 -1058.532104 0.285712 -0.939207 -0.190418
-272.508759 -1362.298340 -1059.927612 0.285712 -0.939207 -0.190418
-292.303436 -1375.499878 -1024.514038 0.285712 -0.939207 -0.190418
-362.877991 -1327.289307 -1071.689941 -0.737168 -0.555608 -0.384555
-340.562042 -1357.687744 -1070.548340 -0.737168 -0.555608 -0.384555
-366.325867 -1345.470459 -1038.812256 -0.737168 -0.555608 -0.384555
-335.085480 -1260.314697 -1074.911011 -0.674568 0.546542 -0.496236
-356.189209 -1291.141968 -1080.175659 -0.674568 0.546542 -0.496236
-359.648041 -1264.976196 -1046.655518 -0.674568 0.546542 -0.496236
-263.530334 -1265.162964 -1063.743530 0.386999 0.844101 -0.371113
-297.794006 -1254.624878 -1075.504883 0.386999 0.844101 -0.371113
-281.498688 -1245.256958 -1037.204590 0.386999 0.844101 -0.371113
-247.099075 -1335.133057 -1053.620850 0.923291 -0.380666 0.051260
-239.877441 -1313.563965 -1023.520508 0.923291 -0.380666 0.051260
-256.213287 -1352.931030 -1021.627258 0.923291 -0.380666 0.051260
-308.498871 -1373.529663 -1058.532104 -0.063275 -0.997613 -0.027654
-292.303436 -1375.499878 -1024.514038 -0.063275 -0.997613 -0.027654
-334.362640 -1372.650269 -1031.078125 -0.063275 -0.997613 -0.027654
-362.877991 -1327.289307 -1071.689941 -0.937020 -0.254631 -0.239074
-366.325867 -1345.470459 -1038.812256 -0.937020 -0.254631 -0.239074
-375.983887 -1304.343262 -1044.762207 -0.937020 -0.254631 -0.239074
-335.085480 -1260.314697 -1074.911011 -0.490461 0.821503 -0.290830
-359.648041 -1264.976196 -1046.655518 -0.490461 0.821503 -0.290830
-323.557892 -1242.407349 -1043.768677 -0.490461 0.821503 -0.290830
-263.530334 -1265.162964 -1063.743530 0.659275 0.743605 -0.111388
-281.498688 -1245.256958 -1037.204590 0.659275 0.743605 -0.111388
-249.535477 -1272.436768 -1029.470459 0.659275 0.743605 -0.111388
-280.775848 -1357.592529 -993.371643 0.439371 -0.435007 0.785953
-259.672119 -1326.765259 -988.107056 0.439371 -0.435007 0.785953
-297.899994 -1333.162842 -970.277466 0.439371 -0.435007 0.785953
-352.330994 -1352.744263 -1004.539124 -0.418572 -0.605230 0.677122
-318.067322 -1363.282349 -992.777832 -0.418572 -0.605230 0.677122
-339.958710 -1330.313110 -976.841492 -0.418572 -0.605230 0.677122
-368.762268 -1282.774170 -1014.661804 -0.831712 0.159657 0.531757
-369.784180 -1319.305176 -1005.291931 -0.831712 0.159657 0.531757
-349.616699 -1289.186035 -982.791443 -0.831712 0.159657 0.531757
-307.362457 -1244.377563 -1009.750671 -0.229113 0.802614 0.550743
-343.352570 -1255.608887 -1008.355103 -0.229113 0.802614 0.550743
-313.527069 -1266.617188 -979.904724 -0.229113 0.802614 0.550743
-252.983322 -1290.617920 -996.592834 0.556466 0.435090 0.707844
-275.299286 -1260.219482 -997.734314 0.556466 0.435090 0.707844
-281.563843 -1293.796387 -972.170776 0.556466 0.435090 0.707844
-281.563843 -1293.796387 -972.170776 0.076132 0.354701 0.931875
-313.527069 -1266.617188 -979.904724 0.076132 0.354701 0.931875
-318.020020 -1301.502319 -966.259277 0.076132 0.354701 0.931875
-281.563843 -1293.796387 -972.170776 0.276033 0.549093 0.788861
-275.299286 -1260.219482 -997.734314 0.276033 0.549093 0.788861
-313.527069 -1266.617188 -979.904724 0.276033 0.549093 0.788861
-275.299286 -1260.219482 -997.734314 0.154847 0.776601 0.610666
-307.362457 -1244.377563 -1009.750671 0.154847 0.776601 0.610666
-313.527069 -1266.617188 -979.904724 0.154847 0.776601 0.610666
-313.527069 -1266.617188 -979.904724 -0.307826 0.380713 0.871952
-349.616699 -1289.186035 -982.791443 -0.307826 0.380713 0.871952
-318.020020 -1301.502319 -966.259277 -0.307826 0.380713 0.871952
-313.527069 -1266.617188 -979.904724 -0.427500 0.596754 0.679065
-343.352570 -1255.608887 -1008.355103 -0.427500 0.596754 0.679065
-349.616699 -1289.186035 -982.791443 -0.427500 0.596754 0.679065
-343.352570 -1255.608887 -1008.355103 -0.682585 0.519032 0.514473
-368.762268 -1282.774170 -1014.661804 -0.682585 0.519032 0.514473
-349.616699 -1289.186035 -982.791443 -0.682585 0.519032 0.514473
-349.616699 -1289.186035 -982.791443 -0.456952 0.021341 0.889236
-339.958710 -1330.313110 -976.841492 -0.456952 0.021341 0.889236
-318.020020 -1301.502319 -966.259277 -0.456952 0.021341 0.889236
-349.616699 -1289.186035 -982.791443 -0.700750 -0.061736 0.710731
-369.784180 -1319.305176 -1005.291931 -0.700750 -0.061736 0.710731
-339.958710 -1330.313110 -976.841492 -0.700750 -0.061736 0.710731
-369.784180 -1319.305176 -1005.291931 -0.710358 -0.357109 0.606519
-352.330994 -1352.744263 -1004.539124 -0.710358 -0.357109 0.606519
-339.958710 -1330.313110 -976.841492 -0.710358 -0.357109 0.606519
-339.958710 -1330.313110 -976.841492 -0.165166 -0.226780 0.959839
-297.899994 -1333.162842 -970.277466 -0.165166 -0.226780 0.959839
-318.020020 -1301.502319 -966.259277 -0.165166 -0.226780 0.959839
-339.958710 -1330.313110 -976.841492 -0.166100 -0.516370 0.840103
-318.067322 -1363.282349 -992.777832 -0.166100 -0.516370 0.840103
-297.899994 -1333.162842 -970.277466 -0.166100 -0.516370 0.840103
-318.067322 -1363.282349 -992.777832 0.109903 -0.641037 0.759600
-280.775848 -1357.592529 -993.371643 0.109903 -0.641037 0.759600
-297.899994 -1333.162842 -970.277466 0.109903 -0.641037 0.759600
-297.899994 -1333.162842 -970.277466 0.164301 -0.020750 0.986192
-281.563843 -1293.796387 -972.170776 0.164301 -0.020750 0.986192
-318.020020 -1301.502319 -966.259277 0.164301 -0.020750 0.986192
-297.899994 -1333.162842 -970.277466 0.437586 -0.138861 0.888389
-259.672119 -1326.765259 -988.107056 0.437586 -0.138861 0.888389
-281.563843 -1293.796387 -972.170776 0.437586 -0.138861 0.888389
-259.672119 -1326.765259 -988.107056 0.644635 0.059637 0.762161
-252.983322 -1290.617920 -996.592834 0.644635 0.059637 0.762161
-281.563843 -1293.796387 -972.170776 0.644635 0.059637 0.762161
-249.535477 -1272.436768 -1029.470459 0.737169 0.555607 0.384554
-275.299286 -1260.219482 -997.734314 0.737169 0.555607 0.384554
-252.983322 -1290.617920 -996.592834 0.737169 0.555607 0.384554
-249.535477 -1272.436768 -1029.470459 0.607145 0.769911 0.196499
-281.498688 -1245.256958 -1037.204590 0.607145 0.769911 0.196499
-275.299286 -1260.219482 -997.734314 0.607145 0.769911 0.196499
-281.498688 -1245.256958 -1037.204590 0.335550 0.897117 0.287379
-307.362457 -1244.377563 -1009.750671 0.335550 0.897117 0.287379
-275.299286 -1260.219482 -997.734314 0.335550 0.897117 0.287379
-323.557892 -1242.407349 -1043.768677 -0.285712 0.939207 0.190419
-343.352570 -1255.608887 -1008.355103 -0.285712 0.939207 0.190419
-307.362457 -1244.377563 -1009.750671 -0.285712 0.939207 0.190419
-323.557892 -1242.407349 -1043.768677 -0.531199 0.847037 0.018843
-359.648041 -1264.976196 -1046.655518 -0.531199 0.847037 0.018843
-343.352570 -1255.608887 -1008.355103 -0.531199 0.847037 0.018843
-359.648041 -1264.976196 -1046.655518 -0.739184 0.655626 0.154147
-368.762268 -1282.774170 -1014.661804 -0.739184 0.655626 0.154147
-343.352570 -1255.608887 -1008.355103 -0.739184 0.655626 0.154147
-375.983887 -1304.343262 -1044.762207 -0.980479 0.074137 0.182110
-369.784180 -1319.305176 -1005.291931 -0.980479 0.074137 0.182110
-368.762268 -1282.774170 -1014.661804 -0.980479 0.074137 0.182110
-375.983887 -1304.343262 -1044.762207 -0.973332 -0.218431 0.070084
-366.325867 -1345.470459 -1038.812256 -0.973332 -0.218431 0.070084
-369.784180 -1319.305176 -1005.291931 -0.973332 -0.218431 0.070084
-366.325867 -1345.470459 -1038.812256 -0.859126 -0.442629 0.256871
-352.330994 -1352.744263 -1004.539124 -0.859126 -0.442629 0.256871
-369.784180 -1319.305176 -1005.291931 -0.859126 -0.442629 0.256871
-334.362640 -1372.650269 -1031.078125 -0.386998 -0.844102 0.371113
-318.067322 -1363.282349 -992.777832 -0.386998 -0.844102 0.371113
-352.330994 -1352.744263 -1004.539124 -0.386998 -0.844102 0.371113
-334.362640 -1372.650269 -1031.078125 -0.108246 -0.954052 0.279407
-292.303436 -1375.499878 -1024.514038 -0.108246 -0.954052 0.279407
-318.067322 -1363.282349 -992.777832 -0.108246 -0.954052 0.279407
-292.303436 -1375.499878 -1024.514038 0.141476 -0.879908 0.453592
-280.775848 -1357.592529 -993.371643 0.141476 -0.879908 0.453592
-318.067322 -1363.282349 -992.777832 0.141476 -0.879908 0.453592
-256.213287 -1352.931030 -1021.627258 0.674569 -0.546542 0.496235
-259.672119 -1326.765259 -988.107056 0.674569 -0.546542 0.496235
-280.775848 -1357.592529 -993.371643 0.674569 -0.546542 0.496235
-256.213287 -1352.931030 -1021.627258 0.868544 -0.343218 0.357537
-239.877441 -1313.563965 -1023.520508 0.868544 -0.343218 0.357537
-259.672119 -1326.765259 -988.107056 0.868544 -0.343218 0.357537
-239.877441 -1313.563965 -1023.520508 0.879832 -0.051898 0.472444
-252.983322 -1290.617920 -996.592834 0.879832 -0.051898 0.472444
-259.672119 -1326.765259 -988.107056 0.879832 -0.051898 0.472444
-281.498688 -1245.256958 -1037.204590 0.063275 0.997613 0.027655
-323.557892 -1242.407349 -1043.768677 0.063275 0.997613 0.027655
-307.362457 -1244.377563 -1009.750671 0.063275 0.997613 0.027655
-281.498688 -1245.256958 -1037.204590 0.108246 0.954052 -0.279407
-297.794006 -1254.624878 -1075.504883 0.108246 0.954052 -0.279407
-323.557892 -1242.407349 -1043.768677 0.108246 0.954052 -0.279407
-297.794006 -1254.624878 -1075.504883 -0.141477 0.879908 -0.453592
-335.085480 -1260.314697 -1074.911011 -0.141477 0.879908 -0.453592
-323.557892 -1242.407349 -1043.768677 -0.141477 0.879908 -0.453592
-359.648041 -1264.976196 -1046.655518 -0.923291 0.380666 -0.051260
-375.983887 -1304.343262 -1044.762207 -0.923291 0.380666 -0.051260
-368.762268 -1282.774170 -1014.661804 -0.923291 0.380666 -0.051260
-359.648041 -1264.976196 -1046.655518 -0.868544 0.343218 -0.357537
-356.189209 -1291.141968 -1080.175659 -0.868544 0.343218 -0.357537
-375.983887 -1304.343262 -1044.762207 -0.868544 0.343218 -0.357537
-356.189209 -1291.141968 -1080.175659 -0.879832 0.051898 -0.472444
-362.877991 -1327.289307 -1071.689941 -0.879832 0.051898 -0.472444
-375.983887 -1304.343262 -1044.762207 -0.879832 0.051898 -0.472444
-366.325867 -1345.470459 -1038.812256 -0.659275 -0.743606 0.111388
-334.362640 -1372.650269 -1031.078125 -0.659275 -0.743606 0.111388
-352.330994 -1352.744263 -1004.539124 -0.659275 -0.743606 0.111388
-366.325867 -1345.470459 -1038.812256 -0.607144 -0.769912 -0.196500
-340.562042 -1357.687744 -1070.548340 -0.607144 -0.769912 -0.196500
-334.362640 -1372.650269 -1031.078125 -0.607144 -0.769912 -0.196500
-340.562042 -1357.687744 -1070.548340 -0.335551 -0.897117 -0.287379
-308.498871 -1373.529663 -1058.532104 -0.335551 -0.897117 -0.287379
-334.362640 -1372.650269 -1031.078125 -0.335551 -0.897117 -0.287379
-292.303436 -1375.499878 -1024.514038 0.490461 -0.821503 0.290829
-256.213287 -1352.931030 -1021.627258 0.490461 -0.821503 0.290829
-280.775848 -1357.592529 -993.371643 0.490461 -0.821503 0.290829
-292.303436 -1375.499878 -1024.514038 0.531199 -0.847037 -0.018843
-272.508759 -1362.298340 -1059.927612 0.531199 -0.847037 -0.018843
-256.213287 -1352.931030 -1021.627258 0.531199 -0.847037 -0.018843
-272.508759 -1362.298340 -1059.927612 0.739184 -0.655626 -0.154147
-247.099075 -1335.133057 -1053.620850 0.739184 -0.655626 -0.154147
-256.213287 -1352.931030 -1021.627258 0.739184 -0.655626 -0.154147
-239.877441 -1313.563965 -1023.520508 0.937020 0.254631 0.239074
-249.535477 -1272.436768 -1029.470459 0.937020 0.254631 0.239074
-252.983322 -1290.617920 -996.592834 0.937020 0.254631 0.239074
-239.877441 -1313.563965 -1023.520508 0.973332 0.218432 -0.070084
-246.077164 -1298.602051 -1062.990723 0.973332 0.218432 -0.070084
-249.535477 -1272.436768 -1029.470459 0.973332 0.218432 -0.070084
-246.077164 -1298.602051 -1062.990723 0.859126 0.442629 -0.256871
-263.530334 -1265.162964 -1063.743530 0.859126 0.442629 -0.256871
-249.535477 -1272.436768 -1029.470459 0.859126 0.442629 -0.256871
-275.902618 -1287.594116 -1091.441162 0.418573 0.605229 -0.677122
-297.794006 -1254.624878 -1075.504883 0.418573 0.605229 -0.677122
-263.530334 -1265.162964 -1063.743530 0.418573 0.605229 -0.677122
-275.902618 -1287.594116 -1091.441162 0.166102 0.516370 -0.840103
-317.961334 -1284.744385 -1098.005249 0.166102 0.516370 -0.840103
-297.794006 -1254.624878 -1075.504883 0.166102 0.516370 -0.840103
-317.961334 -1284.744385 -1098.005249 -0.109904 0.641038 -0.759600
-335.085480 -1260.314697 -1074.911011 -0.109904 0.641038 -0.759600
-297.794006 -1254.624878 -1075.504883 -0.109904 0.641038 -0.759600
-317.961334 -1284.744385 -1098.005249 -0.439371 0.435008 -0.785952
-356.189209 -1291.141968 -1080.175659 -0.439371 0.435008 -0.785952
-335.085480 -1260.314697 -1074.911011 -0.439371 0.435008 -0.785952
-317.961334 -1284.744385 -1098.005249 -0.437586 0.138861 -0.888389
-334.297485 -1324.110840 -1096.111938 -0.437586 0.138861 -0.888389
-356.189209 -1291.141968 -1080.175659 -0.437586 0.138861 -0.888389
-334.297485 -1324.110840 -1096.111938 -0.644634 -0.059636 -0.762162
-362.877991 -1327.289307 -1071.689941 -0.644634 -0.059636 -0.762162
-356.189209 -1291.141968 -1080.175659 -0.644634 -0.059636 -0.762162
-334.297485 -1324.110840 -1096.111938 -0.556464 -0.435092 -0.707844
-340.562042 -1357.687744 -1070.548340 -0.556464 -0.435092 -0.707844
-362.877991 -1327.289307 -1071.689941 -0.556464 -0.435092 -0.707844
-334.297485 -1324.110840 -1096.111938 -0.276033 -0.549095 -0.788861
-302.334259 -1351.290039 -1088.377930 -0.276033 -0.549095 -0.788861
-340.562042 -1357.687744 -1070.548340 -0.276033 -0.549095 -0.788861
-302.334259 -1351.290039 -1088.377930 -0.154848 -0.776600 -0.610667
-308.498871 -1373.529663 -1058.532104 -0.154848 -0.776600 -0.610667
-340.562042 -1357.687744 -1070.548340 -0.154848 -0.776600 -0.610667
-246.077164 -1298.602051 -1062.990723 0.710358 0.357109 -0.606518
-275.902618 -1287.594116 -1091.441162 0.710358 0.357109 -0.606518
-263.530334 -1265.162964 -1063.743530 0.710358 0.357109 -0.606518
-246.077164 -1298.602051 -1062.990723 0.700750 0.061738 -0.710730
-266.244629 -1328.721191 -1085.491333 0.700750 0.061738 -0.710730
-275.902618 -1287.594116 -1091.441162 0.700750 0.061738 -0.710730
-266.244629 -1328.721191 -1085.491333 0.456951 -0.021338 -0.889236
-297.841309 -1316.404907 -1102.023438 0.456951 -0.021338 -0.889236
-275.902618 -1287.594116 -1091.441162 0.456951 -0.021338 -0.889236
-302.334259 -1351.290039 -1088.377930 0.229114 -0.802613 -0.550744
-272.508759 -1362.298340 -1059.927612 0.229114 -0.802613 -0.550744
-308.498871 -1373.529663 -1058.532104 0.229114 -0.802613 -0.550744
-302.334259 -1351.290039 -1088.377930 0.427498 -0.596755 -0.679065
-266.244629 -1328.721191 -1085.491333 0.427498 -0.596755 -0.679065
-272.508759 -1362.298340 -1059.927612 0.427498 -0.596755 -0.679065
-266.244629 -1328.721191 -1085.491333 0.682587 -0.519032 -0.514472
-247.099075 -1335.133057 -1053.620850 0.682587 -0.519032 -0.514472
-272.508759 -1362.298340 -1059.927612 0.682587 -0.519032 -0.514472
3 0 1 2
3 3 4 5
3 6 7 8
3 9 10 11
3 12 13 14
3 15 16 17
3 18 19 20
3 21 22 23
3 24 25 26
3 27 28 29
3 30 31 32
3 33 34 35
3 36 37 38
3 39 40 41
3 42 43 44
3 45 46 47
3 48 49 50
3 51 52 53
3 54 55 56
3 57 58 59
3 60 61 62
3 63 64 65
3 66 67 68
3 69 70 71
3 72 73 74
3 75 76 77
3 78 79 80
3 81 82 83
3 84 85 86
3 87 88 89
3 90 91 92
3 93 94 95
3 96 97 98
3 99 100 101
3 102 103 104
3 105 106 107
3 108 109 110
3 111 112 113
3 114 115 116
3 117 118 119
3 120 121 122
3 123 124 125
3 126 127 128
3 129 130 131
3 132 133 134
3 135 136 137
3 138 139 140
3 141 142 143
3 144 145 146
3 147 148 149
3 150 151 152
3 153 154 155
3 156 157 158
3 159 160 161
3 162 163 164
3 165 166 167
3 168 169 170
3 171 172 173
3 174 175 176
3 177 178 179
3 180 181 182
3 183 184 185
3 186 187 188
3 189 190 191
3 192 193 194
3 195 196 197
3 198 199 200
3 201 202 203
3 204 205 206
3 207 208 209
3 210 211 212
3 213 214 215
3 216 217 218
3 219 220 221
3 222 223 224
3 225 226 227
3 228 229 230
3 231 232 233
3 234 235 236
3 237 238 239
